<svg id="visual" viewBox="0 0 900 600" width="900" height="600" xmlns="http://www.w3.org/2000/svg" xmlns:xlink="http://www.w3.org/1999/xlink" version="1.1"><path d="M0 79L15 82C30 85 60 91 90 85C120 79 150 61 180 53C210 45 240 47 270 55C300 63 330 77 360 85C390 93 420 95 450 85C480 75 510 53 540 43C570 33 600 35 630 45C660 55 690 73 720 77C750 81 780 71 810 70C840 69 870 77 885 81L900 85L900 0L885 0C870 0 840 0 810 0C780 0 750 0 720 0C690 0 660 0 630 0C600 0 570 0 540 0C510 0 480 0 450 0C420 0 390 0 360 0C330 0 300 0 270 0C240 0 210 0 180 0C150 0 120 0 90 0C60 0 30 0 15 0L0 0Z" fill="#6198ff"></path><path d="M0 163L15 175C30 187 60 211 90 211C120 211 150 187 180 176C210 165 240 167 270 162C300 157 330 145 360 141C390 137 420 141 450 143C480 145 510 145 540 146C570 147 600 149 630 152C660 155 690 159 720 153C750 147 780 131 810 129C840 127 870 139 885 145L900 151L900 83L885 79C870 75 840 67 810 68C780 69 750 79 720 75C690 71 660 53 630 43C600 33 570 31 540 41C510 51 480 73 450 83C420 93 390 91 360 83C330 75 300 61 270 53C240 45 210 43 180 51C150 59 120 77 90 83C60 89 30 83 15 80L0 77Z" fill="#4385ff"></path><path d="M0 199L15 213C30 227 60 255 90 257C120 259 150 235 180 226C210 217 240 223 270 220C300 217 330 205 360 197C390 189 420 185 450 191C480 197 510 213 540 213C570 213 600 197 630 194C660 191 690 201 720 203C750 205 780 199 810 198C840 197 870 201 885 203L900 205L900 149L885 143C870 137 840 125 810 127C780 129 750 145 720 151C690 157 660 153 630 150C600 147 570 145 540 144C510 143 480 143 450 141C420 139 390 135 360 139C330 143 300 155 270 160C240 165 210 163 180 174C150 185 120 209 90 209C60 209 30 185 15 173L0 161Z" fill="#2071ff"></path><path d="M0 355L15 364C30 373 60 391 90 404C120 417 150 425 180 428C210 431 240 429 270 420C300 411 330 395 360 385C390 375 420 371 450 377C480 383 510 399 540 405C570 411 600 407 630 401C660 395 690 387 720 375C750 363 780 347 810 363C840 379 870 427 885 451L900 475L900 203L885 201C870 199 840 195 810 196C780 197 750 203 720 201C690 199 660 189 630 192C600 195 570 211 540 211C510 211 480 195 450 189C420 183 390 187 360 195C330 203 300 215 270 218C240 221 210 215 180 224C150 233 120 257 90 255C60 253 30 225 15 211L0 197Z" fill="#0061f1"></path><path d="M0 535L15 534C30 533 60 531 90 533C120 535 150 541 180 542C210 543 240 539 270 536C300 533 330 531 360 524C390 517 420 505 450 499C480 493 510 493 540 490C570 487 600 481 630 490C660 499 690 523 720 527C750 531 780 515 810 518C840 521 870 543 885 554L900 565L900 473L885 449C870 425 840 377 810 361C780 345 750 361 720 373C690 385 660 393 630 399C600 405 570 409 540 403C510 397 480 381 450 375C420 369 390 373 360 383C330 393 300 409 270 418C240 427 210 429 180 426C150 423 120 415 90 402C60 389 30 371 15 362L0 353Z" fill="#0056d6"></path><path d="M0 601L15 601C30 601 60 601 90 601C120 601 150 601 180 601C210 601 240 601 270 601C300 601 330 601 360 601C390 601 420 601 450 601C480 601 510 601 540 601C570 601 600 601 630 601C660 601 690 601 720 601C750 601 780 601 810 601C840 601 870 601 885 601L900 601L900 563L885 552C870 541 840 519 810 516C780 513 750 529 720 525C690 521 660 497 630 488C600 479 570 485 540 488C510 491 480 491 450 497C420 503 390 515 360 522C330 529 300 531 270 534C240 537 210 541 180 540C150 539 120 533 90 531C60 529 30 531 15 532L0 533Z" fill="#004cbb"></path></svg>