<svg id="visual" viewBox="0 0 900 600" width="900" height="600" xmlns="http://www.w3.org/2000/svg" xmlns:xlink="http://www.w3.org/1999/xlink" version="1.1"><rect x="0" y="0" width="900" height="600" fill="#f7fcff"></rect><path d="M0 274L21.5 284C43 294 86 314 128.8 325.5C171.7 337 214.3 340 257.2 343.3C300 346.7 343 350.3 385.8 330.8C428.7 311.3 471.3 268.7 514.2 259.2C557 249.7 600 273.3 642.8 293C685.7 312.7 728.3 328.3 771.2 317.2C814 306 857 268 878.5 249L900 230L900 601L878.5 601C857 601 814 601 771.2 601C728.3 601 685.7 601 642.8 601C600 601 557 601 514.2 601C471.3 601 428.7 601 385.8 601C343 601 300 601 257.2 601C214.3 601 171.7 601 128.8 601C86 601 43 601 21.5 601L0 601Z" fill="#0066ff"></path><path d="M0 389L21.5 371.2C43 353.3 86 317.7 128.8 304.3C171.7 291 214.3 300 257.2 310.2C300 320.3 343 331.7 385.8 325.8C428.7 320 471.3 297 514.2 287.7C557 278.3 600 282.7 642.8 294C685.7 305.3 728.3 323.7 771.2 327.2C814 330.7 857 319.3 878.5 313.7L900 308L900 601L878.5 601C857 601 814 601 771.2 601C728.3 601 685.7 601 642.8 601C600 601 557 601 514.2 601C471.3 601 428.7 601 385.8 601C343 601 300 601 257.2 601C214.3 601 171.7 601 128.8 601C86 601 43 601 21.5 601L0 601Z" fill="#0099ff"></path><path d="M0 345L21.5 359C43 373 86 401 128.8 410C171.7 419 214.3 409 257.2 398.3C300 387.7 343 376.3 385.8 376.7C428.7 377 471.3 389 514.2 396.2C557 403.3 600 405.7 642.8 415C685.7 424.3 728.3 440.7 771.2 429.5C814 418.3 857 379.7 878.5 360.3L900 341L900 601L878.5 601C857 601 814 601 771.2 601C728.3 601 685.7 601 642.8 601C600 601 557 601 514.2 601C471.3 601 428.7 601 385.8 601C343 601 300 601 257.2 601C214.3 601 171.7 601 128.8 601C86 601 43 601 21.5 601L0 601Z" fill="#00b2ff"></path><path d="M0 470L21.5 460.3C43 450.7 86 431.3 128.8 427.3C171.7 423.3 214.3 434.7 257.2 447.2C300 459.7 343 473.3 385.8 468.2C428.7 463 471.3 439 514.2 440.7C557 442.3 600 469.7 642.8 479C685.7 488.3 728.3 479.7 771.2 481.7C814 483.7 857 496.3 878.5 502.7L900 509L900 601L878.5 601C857 601 814 601 771.2 601C728.3 601 685.7 601 642.8 601C600 601 557 601 514.2 601C471.3 601 428.7 601 385.8 601C343 601 300 601 257.2 601C214.3 601 171.7 601 128.8 601C86 601 43 601 21.5 601L0 601Z" fill="#0099ff"></path><path d="M0 546L21.5 538.5C43 531 86 516 128.8 507.8C171.7 499.7 214.3 498.3 257.2 507.7C300 517 343 537 385.8 538.7C428.7 540.3 471.3 523.7 514.2 520.5C557 517.3 600 527.7 642.8 526.5C685.7 525.3 728.3 512.7 771.2 511.7C814 510.7 857 521.3 878.5 526.7L900 532L900 601L878.5 601C857 601 814 601 771.2 601C728.3 601 685.7 601 642.8 601C600 601 557 601 514.2 601C471.3 601 428.7 601 385.8 601C343 601 300 601 257.2 601C214.3 601 171.7 601 128.8 601C86 601 43 601 21.5 601L0 601Z" fill="#0066ff"></path></svg>