<svg id="visual" viewBox="0 0 900 600" width="900" height="600" xmlns="http://www.w3.org/2000/svg" xmlns:xlink="http://www.w3.org/1999/xlink" version="1.1"><rect x="0" y="0" width="900" height="600" fill="#001220"></rect><path d="M0 331L16.7 321.3C33.3 311.7 66.7 292.3 100 288.2C133.3 284 166.7 295 200 304.2C233.3 313.3 266.7 320.7 300 323C333.3 325.3 366.7 322.7 400 308.8C433.3 295 466.7 270 500 262.5C533.3 255 566.7 265 600 270.2C633.3 275.3 666.7 275.7 700 283.7C733.3 291.7 766.7 307.3 800 310.8C833.3 314.3 866.7 305.7 883.3 301.3L900 297L900 601L883.3 601C866.7 601 833.3 601 800 601C766.7 601 733.3 601 700 601C666.7 601 633.3 601 600 601C566.7 601 533.3 601 500 601C466.7 601 433.3 601 400 601C366.7 601 333.3 601 300 601C266.7 601 233.3 601 200 601C166.7 601 133.3 601 100 601C66.7 601 33.3 601 16.7 601L0 601Z" fill="#c62368"></path><path d="M0 390L16.7 379.7C33.3 369.3 66.7 348.7 100 337.7C133.3 326.7 166.7 325.3 200 337.2C233.3 349 266.7 374 300 377.2C333.3 380.3 366.7 361.7 400 359.8C433.3 358 466.7 373 500 382.2C533.3 391.3 566.7 394.7 600 391.7C633.3 388.7 666.7 379.3 700 366.2C733.3 353 766.7 336 800 339.2C833.3 342.3 866.7 365.7 883.3 377.3L900 389L900 601L883.3 601C866.7 601 833.3 601 800 601C766.7 601 733.3 601 700 601C666.7 601 633.3 601 600 601C566.7 601 533.3 601 500 601C466.7 601 433.3 601 400 601C366.7 601 333.3 601 300 601C266.7 601 233.3 601 200 601C166.7 601 133.3 601 100 601C66.7 601 33.3 601 16.7 601L0 601Z" fill="#e34c67"></path><path d="M0 388L16.7 382.8C33.3 377.7 66.7 367.3 100 371C133.3 374.7 166.7 392.3 200 399.8C233.3 407.3 266.7 404.7 300 409.8C333.3 415 366.7 428 400 418.8C433.3 409.7 466.7 378.3 500 363.3C533.3 348.3 566.7 349.7 600 349.8C633.3 350 666.7 349 700 356.2C733.3 363.3 766.7 378.7 800 390.3C833.3 402 866.7 410 883.3 414L900 418L900 601L883.3 601C866.7 601 833.3 601 800 601C766.7 601 733.3 601 700 601C666.7 601 633.3 601 600 601C566.7 601 533.3 601 500 601C466.7 601 433.3 601 400 601C366.7 601 333.3 601 300 601C266.7 601 233.3 601 200 601C166.7 601 133.3 601 100 601C66.7 601 33.3 601 16.7 601L0 601Z" fill="#fa7268"></path><path d="M0 455L16.7 447.7C33.3 440.3 66.7 425.7 100 428.2C133.3 430.7 166.7 450.3 200 458.8C233.3 467.3 266.7 464.7 300 453.5C333.3 442.3 366.7 422.7 400 425.8C433.3 429 466.7 455 500 464.5C533.3 474 566.7 467 600 459C633.3 451 666.7 442 700 440C733.3 438 766.7 443 800 439.5C833.3 436 866.7 424 883.3 418L900 412L900 601L883.3 601C866.7 601 833.3 601 800 601C766.7 601 733.3 601 700 601C666.7 601 633.3 601 600 601C566.7 601 533.3 601 500 601C466.7 601 433.3 601 400 601C366.7 601 333.3 601 300 601C266.7 601 233.3 601 200 601C166.7 601 133.3 601 100 601C66.7 601 33.3 601 16.7 601L0 601Z" fill="#fa7268"></path><path d="M0 473L16.7 473.5C33.3 474 66.7 475 100 472C133.3 469 166.7 462 200 460.3C233.3 458.7 266.7 462.3 300 466.8C333.3 471.3 366.7 476.7 400 478.2C433.3 479.7 466.7 477.3 500 474.7C533.3 472 566.7 469 600 471.3C633.3 473.7 666.7 481.3 700 484C733.3 486.7 766.7 484.3 800 486.7C833.3 489 866.7 496 883.3 499.5L900 503L900 601L883.3 601C866.7 601 833.3 601 800 601C766.7 601 733.3 601 700 601C666.7 601 633.3 601 600 601C566.7 601 533.3 601 500 601C466.7 601 433.3 601 400 601C366.7 601 333.3 601 300 601C266.7 601 233.3 601 200 601C166.7 601 133.3 601 100 601C66.7 601 33.3 601 16.7 601L0 601Z" fill="#e34c67"></path><path d="M0 519L16.7 520.3C33.3 521.7 66.7 524.3 100 528.2C133.3 532 166.7 537 200 537C233.3 537 266.7 532 300 535.2C333.3 538.3 366.7 549.7 400 547.7C433.3 545.7 466.7 530.3 500 526.7C533.3 523 566.7 531 600 533.7C633.3 536.3 666.7 533.7 700 532.8C733.3 532 766.7 533 800 537.2C833.3 541.3 866.7 548.7 883.3 552.3L900 556L900 601L883.3 601C866.7 601 833.3 601 800 601C766.7 601 733.3 601 700 601C666.7 601 633.3 601 600 601C566.7 601 533.3 601 500 601C466.7 601 433.3 601 400 601C366.7 601 333.3 601 300 601C266.7 601 233.3 601 200 601C166.7 601 133.3 601 100 601C66.7 601 33.3 601 16.7 601L0 601Z" fill="#c62368"></path></svg>