<svg id="visual" viewBox="0 0 900 600" width="900" height="600" xmlns="http://www.w3.org/2000/svg" xmlns:xlink="http://www.w3.org/1999/xlink" version="1.1"><g stroke-width="1" stroke-linejoin="bevel"><path d="M489 327L404 286L486 383Z" fill="#aaafb3" stroke="#aaafb3"></path><path d="M404 286L395 418L486 383Z" fill="#a1a5a9" stroke="#a1a5a9"></path><path d="M404 286L315 301L395 418Z" fill="#979b9f" stroke="#979b9f"></path><path d="M489 327L405 225L404 286Z" fill="#aaafb3" stroke="#aaafb3"></path><path d="M404 286L405 225L315 301Z" fill="#a1a5a9" stroke="#a1a5a9"></path><path d="M267 405L334 474L395 418Z" fill="#a1a5a9" stroke="#a1a5a9"></path><path d="M395 418L511 525L486 383Z" fill="#979b9f" stroke="#979b9f"></path><path d="M315 301L267 405L395 418Z" fill="#a1a5a9" stroke="#a1a5a9"></path><path d="M334 474L409 523L395 418Z" fill="#a1a5a9" stroke="#a1a5a9"></path><path d="M511 525L593 415L486 383Z" fill="#e7ebef" stroke="#e7ebef"></path><path d="M486 383L593 415L489 327Z" fill="#979b9f" stroke="#979b9f"></path><path d="M489 327L537 176L405 225Z" fill="#bec2c6" stroke="#bec2c6"></path><path d="M409 523L511 525L395 418Z" fill="#c8ccd0" stroke="#c8ccd0"></path><path d="M315 301L226 371L267 405Z" fill="#d2d6da" stroke="#d2d6da"></path><path d="M339 600L409 523L334 474Z" fill="#f1f5f9" stroke="#f1f5f9"></path><path d="M207 275L226 371L315 301Z" fill="#aaafb3" stroke="#aaafb3"></path><path d="M602 238L537 176L489 327Z" fill="#a1a5a9" stroke="#a1a5a9"></path><path d="M593 415L623 286L489 327Z" fill="#c8ccd0" stroke="#c8ccd0"></path><path d="M623 286L602 238L489 327Z" fill="#a1a5a9" stroke="#a1a5a9"></path><path d="M272 162L315 301L405 225Z" fill="#a1a5a9" stroke="#a1a5a9"></path><path d="M272 162L207 275L315 301Z" fill="#d2d6da" stroke="#d2d6da"></path><path d="M511 525L625 470L593 415Z" fill="#f1f5f9" stroke="#f1f5f9"></path><path d="M593 415L690 431L623 286Z" fill="#bec2c6" stroke="#bec2c6"></path><path d="M279 138L272 162L405 225Z" fill="#c8ccd0" stroke="#c8ccd0"></path><path d="M191 464L334 474L267 405Z" fill="#979b9f" stroke="#979b9f"></path><path d="M339 600L377 600L409 523Z" fill="#dce0e4" stroke="#dce0e4"></path><path d="M409 523L525 600L511 525Z" fill="#aaafb3" stroke="#aaafb3"></path><path d="M511 525L579 600L625 470Z" fill="#e7ebef" stroke="#e7ebef"></path><path d="M614 131L470 99L537 176Z" fill="#e7ebef" stroke="#e7ebef"></path><path d="M537 176L470 99L405 225Z" fill="#aaafb3" stroke="#aaafb3"></path><path d="M378 84L279 138L405 225Z" fill="#b4b8bc" stroke="#b4b8bc"></path><path d="M272 162L189 235L207 275Z" fill="#e7ebef" stroke="#e7ebef"></path><path d="M123 412L191 464L226 371Z" fill="#d2d6da" stroke="#d2d6da"></path><path d="M226 371L191 464L267 405Z" fill="#d2d6da" stroke="#d2d6da"></path><path d="M181 600L339 600L334 474Z" fill="#a1a5a9" stroke="#a1a5a9"></path><path d="M131 86L189 235L272 162Z" fill="#a1a5a9" stroke="#a1a5a9"></path><path d="M207 275L123 412L226 371Z" fill="#979b9f" stroke="#979b9f"></path><path d="M377 600L525 600L409 523Z" fill="#aaafb3" stroke="#aaafb3"></path><path d="M470 99L378 84L405 225Z" fill="#8e9296" stroke="#8e9296"></path><path d="M691 532L690 431L625 470Z" fill="#f1f5f9" stroke="#f1f5f9"></path><path d="M625 470L690 431L593 415Z" fill="#dce0e4" stroke="#dce0e4"></path><path d="M721 191L614 131L602 238Z" fill="#979b9f" stroke="#979b9f"></path><path d="M721 191L602 238L623 286Z" fill="#c8ccd0" stroke="#c8ccd0"></path><path d="M602 238L614 131L537 176Z" fill="#e7ebef" stroke="#e7ebef"></path><path d="M525 600L579 600L511 525Z" fill="#d2d6da" stroke="#d2d6da"></path><path d="M63 339L123 412L207 275Z" fill="#f1f5f9" stroke="#f1f5f9"></path><path d="M191 464L181 600L334 474Z" fill="#e7ebef" stroke="#e7ebef"></path><path d="M579 600L691 532L625 470Z" fill="#979b9f" stroke="#979b9f"></path><path d="M779 383L739 273L690 431Z" fill="#e7ebef" stroke="#e7ebef"></path><path d="M690 431L739 273L623 286Z" fill="#aaafb3" stroke="#aaafb3"></path><path d="M739 273L721 191L623 286Z" fill="#979b9f" stroke="#979b9f"></path><path d="M84 539L181 600L191 464Z" fill="#d2d6da" stroke="#d2d6da"></path><path d="M516 0L435 0L470 99Z" fill="#f1f5f9" stroke="#f1f5f9"></path><path d="M470 99L435 0L378 84Z" fill="#b4b8bc" stroke="#b4b8bc"></path><path d="M312 0L212 65L279 138Z" fill="#f1f5f9" stroke="#f1f5f9"></path><path d="M516 0L470 99L570 0Z" fill="#aaafb3" stroke="#aaafb3"></path><path d="M811 462L779 383L690 431Z" fill="#bec2c6" stroke="#bec2c6"></path><path d="M739 273L775 260L721 191Z" fill="#aaafb3" stroke="#aaafb3"></path><path d="M312 0L279 138L378 84Z" fill="#c8ccd0" stroke="#c8ccd0"></path><path d="M279 138L212 65L272 162Z" fill="#979b9f" stroke="#979b9f"></path><path d="M87 217L63 339L207 275Z" fill="#979b9f" stroke="#979b9f"></path><path d="M87 217L207 275L189 235Z" fill="#b4b8bc" stroke="#b4b8bc"></path><path d="M123 412L84 539L191 464Z" fill="#bec2c6" stroke="#bec2c6"></path><path d="M779 383L775 260L739 273Z" fill="#979b9f" stroke="#979b9f"></path><path d="M570 0L470 99L614 131Z" fill="#dce0e4" stroke="#dce0e4"></path><path d="M131 86L87 217L189 235Z" fill="#a1a5a9" stroke="#a1a5a9"></path><path d="M435 0L312 0L378 84Z" fill="#c8ccd0" stroke="#c8ccd0"></path><path d="M579 600L701 600L691 532Z" fill="#979b9f" stroke="#979b9f"></path><path d="M691 532L811 462L690 431Z" fill="#c8ccd0" stroke="#c8ccd0"></path><path d="M718 78L570 0L614 131Z" fill="#8e9296" stroke="#8e9296"></path><path d="M0 485L84 539L123 412Z" fill="#b4b8bc" stroke="#b4b8bc"></path><path d="M775 260L792 211L721 191Z" fill="#e7ebef" stroke="#e7ebef"></path><path d="M721 191L718 78L614 131Z" fill="#d2d6da" stroke="#d2d6da"></path><path d="M900 226L792 211L775 260Z" fill="#aaafb3" stroke="#aaafb3"></path><path d="M162 0L131 86L212 65Z" fill="#f1f5f9" stroke="#f1f5f9"></path><path d="M212 65L131 86L272 162Z" fill="#8e9296" stroke="#8e9296"></path><path d="M837 121L718 78L721 191Z" fill="#aaafb3" stroke="#aaafb3"></path><path d="M778 600L811 462L691 532Z" fill="#bec2c6" stroke="#bec2c6"></path><path d="M779 383L900 292L775 260Z" fill="#a1a5a9" stroke="#a1a5a9"></path><path d="M84 539L104 600L181 600Z" fill="#979b9f" stroke="#979b9f"></path><path d="M87 217L0 305L63 339Z" fill="#b4b8bc" stroke="#b4b8bc"></path><path d="M63 339L0 407L123 412Z" fill="#f1f5f9" stroke="#f1f5f9"></path><path d="M84 539L0 600L104 600Z" fill="#979b9f" stroke="#979b9f"></path><path d="M0 164L0 305L87 217Z" fill="#c8ccd0" stroke="#c8ccd0"></path><path d="M0 305L0 407L63 339Z" fill="#8e9296" stroke="#8e9296"></path><path d="M701 600L778 600L691 532Z" fill="#d2d6da" stroke="#d2d6da"></path><path d="M312 0L162 0L212 65Z" fill="#e7ebef" stroke="#e7ebef"></path><path d="M131 86L0 164L87 217Z" fill="#bec2c6" stroke="#bec2c6"></path><path d="M0 407L0 485L123 412Z" fill="#f1f5f9" stroke="#f1f5f9"></path><path d="M789 0L716 0L718 78Z" fill="#dce0e4" stroke="#dce0e4"></path><path d="M718 78L716 0L570 0Z" fill="#a1a5a9" stroke="#a1a5a9"></path><path d="M162 0L131 0L131 86Z" fill="#e7ebef" stroke="#e7ebef"></path><path d="M0 98L0 164L131 86Z" fill="#c8ccd0" stroke="#c8ccd0"></path><path d="M900 226L837 121L792 211Z" fill="#b4b8bc" stroke="#b4b8bc"></path><path d="M792 211L837 121L721 191Z" fill="#e7ebef" stroke="#e7ebef"></path><path d="M900 460L900 393L811 462Z" fill="#d2d6da" stroke="#d2d6da"></path><path d="M811 462L900 393L779 383Z" fill="#dce0e4" stroke="#dce0e4"></path><path d="M900 393L900 292L779 383Z" fill="#dce0e4" stroke="#dce0e4"></path><path d="M900 600L900 460L811 462Z" fill="#f1f5f9" stroke="#f1f5f9"></path><path d="M900 292L900 226L775 260Z" fill="#bec2c6" stroke="#bec2c6"></path><path d="M0 485L0 600L84 539Z" fill="#aaafb3" stroke="#aaafb3"></path><path d="M0 0L0 98L131 86Z" fill="#d2d6da" stroke="#d2d6da"></path><path d="M900 69L789 0L837 121Z" fill="#b4b8bc" stroke="#b4b8bc"></path><path d="M837 121L789 0L718 78Z" fill="#a1a5a9" stroke="#a1a5a9"></path><path d="M778 600L900 600L811 462Z" fill="#d2d6da" stroke="#d2d6da"></path><path d="M131 0L0 0L131 86Z" fill="#979b9f" stroke="#979b9f"></path><path d="M900 226L900 69L837 121Z" fill="#e7ebef" stroke="#e7ebef"></path><path d="M900 69L900 0L789 0Z" fill="#979b9f" stroke="#979b9f"></path></g></svg>